<mxfile host="app.diagrams.net" agent="Mozilla/5.0 (Windows NT 10.0; Win64; x64) AppleWebKit/537.36 (KHTML, like Gecko) Chrome/132.0.0.0 Safari/537.36" version="26.0.14">
  <diagram name="Page-1" id="c7558073-3199-34d8-9f00-42111426c3f3">
    <mxGraphModel dx="794" dy="412" grid="1" gridSize="10" guides="1" tooltips="1" connect="1" arrows="1" fold="1" page="1" pageScale="1" pageWidth="826" pageHeight="1169" background="none" math="0" shadow="0">
      <root>
        <mxCell id="0" />
        <mxCell id="1" parent="0" />
        <mxCell id="2" value="&lt;p style=&quot;margin: 0px; margin-top: 4px; text-align: center; text-decoration: underline;&quot;&gt;&lt;strong&gt;Dealer-Product-Service&lt;/strong&gt;&lt;/p&gt;&lt;hr&gt;&lt;p style=&quot;margin: 0px; margin-left: 8px;&quot;&gt;/&lt;b style=&quot;background-color: transparent; color: light-dark(rgb(0, 0, 0), rgb(255, 255, 255));&quot;&gt;&lt;span style=&quot;line-height: 115%; font-family: Aptos, sans-serif;&quot;&gt;&lt;font&gt;catalog-mapping&lt;/font&gt;&lt;/span&gt;&lt;/b&gt;&lt;/p&gt;" style="verticalAlign=middle;align=center;overflow=fill;fontSize=12;fontFamily=Helvetica;html=1;rounded=1;fontStyle=1;strokeWidth=3;fillColor=#E6FFCC" parent="1" vertex="1">
          <mxGeometry x="341" y="215" width="144" height="90" as="geometry" />
        </mxCell>
        <mxCell id="3" value="Delaer group/Image Data" style="whiteSpace=wrap;align=center;verticalAlign=middle;fontStyle=1;strokeWidth=3;fillColor=#FFFFCC" parent="1" vertex="1">
          <mxGeometry x="402" y="30" width="90" height="60" as="geometry" />
        </mxCell>
        <mxCell id="4" value="Dealer Inser/Update" style="whiteSpace=wrap;align=center;verticalAlign=middle;fontStyle=1;strokeWidth=3;fillColor=#FFFFCC" parent="1" vertex="1">
          <mxGeometry x="150" y="125" width="90" height="60" as="geometry" />
        </mxCell>
        <mxCell id="5" value="User and Dealer/Group data Validation" style="shape=process;whiteSpace=wrap;align=center;verticalAlign=middle;size=0.0475;fontStyle=1;strokeWidth=3;fillColor=#FFCCCC" parent="1" vertex="1">
          <mxGeometry x="200.99999999999991" y="411" width="400" height="50" as="geometry" />
        </mxCell>
        <mxCell id="10" value="&lt;p style=&quot;margin: 0px; margin-top: 4px; text-align: center; text-decoration: underline;&quot;&gt;&lt;strong&gt;&lt;strong&gt;Process&lt;/strong&gt; 6&lt;br /&gt;&lt;/strong&gt;&lt;/p&gt;&lt;hr /&gt;&lt;p style=&quot;margin: 0px; margin-left: 8px;&quot;&gt;New&lt;/p&gt;&lt;p style=&quot;margin: 0px; margin-left: 8px;&quot;&gt;System&lt;/p&gt;&lt;p style=&quot;margin: 0px; margin-left: 8px;&quot;&gt;Construction&lt;/p&gt;" style="verticalAlign=middle;align=center;overflow=fill;fontSize=12;fontFamily=Helvetica;html=1;rounded=1;fontStyle=1;strokeWidth=3;fillColor=#E6FFCC" parent="1" vertex="1">
          <mxGeometry x="352.9999999999999" y="520" width="110" height="90" as="geometry" />
        </mxCell>
        <mxCell id="36" value="" style="edgeStyle=none;noEdgeStyle=1;strokeColor=#990000;strokeWidth=2;entryX=0.75;entryY=0;entryDx=0;entryDy=0;" parent="1" source="3" target="2" edge="1">
          <mxGeometry width="100" height="100" relative="1" as="geometry">
            <mxPoint x="151" y="214" as="sourcePoint" />
            <mxPoint x="447" y="210" as="targetPoint" />
          </mxGeometry>
        </mxCell>
        <mxCell id="37" value="" style="edgeStyle=none;noEdgeStyle=1;strokeColor=#990000;strokeWidth=2;" parent="1" edge="1">
          <mxGeometry width="100" height="100" relative="1" as="geometry">
            <mxPoint x="240" y="160" as="sourcePoint" />
            <mxPoint x="370" y="211" as="targetPoint" />
            <Array as="points">
              <mxPoint x="370" y="160" />
            </Array>
          </mxGeometry>
        </mxCell>
        <mxCell id="52" value="(Dealermapping Data)" style="text;spacingTop=-5;align=center" parent="1" vertex="1">
          <mxGeometry x="290" y="160" width="30" height="20" as="geometry" />
        </mxCell>
        <mxCell id="53" value="Get Rates/Image Data" style="text;spacingTop=-5;align=center" parent="1" vertex="1">
          <mxGeometry x="485" y="105" width="30" height="20" as="geometry" />
        </mxCell>
        <mxCell id="54" value="Documentation&#xa;from similar projects" style="text;spacingTop=-5;align=center" parent="1" vertex="1">
          <mxGeometry x="317" y="305" width="30" height="20" as="geometry" />
        </mxCell>
        <mxCell id="55" value="" style="edgeStyle=elbowEdgeStyle;elbow=horizontal;strokeColor=#990000;strokeWidth=2" parent="1" source="5" target="2" edge="1">
          <mxGeometry width="100" height="100" relative="1" as="geometry">
            <mxPoint x="50" y="530" as="sourcePoint" />
            <mxPoint x="150" y="430" as="targetPoint" />
            <Array as="points">
              <mxPoint x="260" y="370" />
            </Array>
          </mxGeometry>
        </mxCell>
        <mxCell id="56" value="" style="edgeStyle=elbowEdgeStyle;elbow=horizontal;strokeColor=#990000;strokeWidth=2;entryX=0.701;entryY=0.007;entryDx=0;entryDy=0;entryPerimeter=0;" parent="1" target="5" edge="1">
          <mxGeometry width="100" height="100" relative="1" as="geometry">
            <mxPoint x="481" y="300" as="sourcePoint" />
            <mxPoint x="481" y="400" as="targetPoint" />
            <Array as="points">
              <mxPoint x="481" y="359" />
            </Array>
          </mxGeometry>
        </mxCell>
        <mxCell id="57" value="Elaborate&#xa;cost/benefit&#xa;ratio" style="text;spacingTop=-5;align=center" parent="1" vertex="1">
          <mxGeometry x="437" y="305" width="30" height="20" as="geometry" />
        </mxCell>
        <mxCell id="90" value="Version&#xa;specs" style="text;spacingTop=-5;align=center" parent="1" vertex="1">
          <mxGeometry x="261" y="461" width="30" height="20" as="geometry" />
        </mxCell>
        <mxCell id="91" value="Certificates,&#xa;system&#xa;libraries" style="text;spacingTop=-5;align=center" parent="1" vertex="1">
          <mxGeometry x="180" y="461.0000000000002" width="30" height="20" as="geometry" />
        </mxCell>
        <mxCell id="92" value="" style="edgeStyle=elbowEdgeStyle;elbow=horizontal;strokeColor=#990000;strokeWidth=2" parent="1" edge="1">
          <mxGeometry width="100" height="100" relative="1" as="geometry">
            <mxPoint x="389" y="461" as="sourcePoint" />
            <mxPoint x="390" y="510" as="targetPoint" />
            <Array as="points">
              <mxPoint x="390" y="490" />
            </Array>
          </mxGeometry>
        </mxCell>
        <mxCell id="93" value="" style="edgeStyle=elbowEdgeStyle;elbow=horizontal;strokeColor=#990000;strokeWidth=2" parent="1" source="10" target="5" edge="1">
          <mxGeometry width="100" height="100" relative="1" as="geometry">
            <mxPoint x="40" y="510" as="sourcePoint" />
            <mxPoint x="140" y="410" as="targetPoint" />
            <Array as="points">
              <mxPoint x="230" y="470" />
            </Array>
          </mxGeometry>
        </mxCell>
        <mxCell id="Sqqw_Ag6Yz8gYUWAP3A--96" value="AEM Servlet" style="whiteSpace=wrap;align=center;verticalAlign=middle;fontStyle=1;strokeWidth=3;fillColor=#FFFFCC" vertex="1" parent="1">
          <mxGeometry x="150" y="10" width="90" height="60" as="geometry" />
        </mxCell>
        <mxCell id="Sqqw_Ag6Yz8gYUWAP3A--97" value="" style="edgeStyle=none;noEdgeStyle=1;strokeColor=#990000;strokeWidth=2;entryX=0.607;entryY=0.039;entryDx=0;entryDy=0;entryPerimeter=0;" edge="1" parent="1">
          <mxGeometry width="100" height="100" relative="1" as="geometry">
            <mxPoint x="193" y="67.66" as="sourcePoint" />
            <mxPoint x="192.63" y="125.00000000000003" as="targetPoint" />
            <Array as="points">
              <mxPoint x="193" y="91.66" />
            </Array>
          </mxGeometry>
        </mxCell>
        <mxCell id="Sqqw_Ag6Yz8gYUWAP3A--103" value="" style="shape=cylinder3;whiteSpace=wrap;html=1;boundedLbl=1;backgroundOutline=1;size=15;fillColor=light-dark(#db2929, #ededed);" vertex="1" parent="1">
          <mxGeometry x="383" y="650" width="60" height="80" as="geometry" />
        </mxCell>
      </root>
    </mxGraphModel>
  </diagram>
</mxfile>
